<svg xmlns="http://www.w3.org/2000/svg" width="38" height="38" viewBox="0 0 38 38">
  <g id="Group_6374" data-name="Group 6374" transform="translate(0.105 0.031)">
    <circle id="Ellipse_99" data-name="Ellipse 99" cx="19" cy="19" r="19" transform="translate(-0.106 -0.031)" fill="#279c30"/>
    <path id="Icon_ionic-logo-facebook" data-name="Icon ionic-logo-facebook" d="M19.5,4.5H5.377a.877.877,0,0,0-.877.877V19.5a.877.877,0,0,0,.877.877h7.064V14.1h-1.9V11.779h1.9V10.067A3.017,3.017,0,0,1,15.7,6.9c.877,0,1.82.066,2.039.1V9.136h-1.46c-1,0-1.187.471-1.187,1.166v1.477h2.374l-.31,2.316H15.088v6.287H19.5a.877.877,0,0,0,.877-.877V5.377A.877.877,0,0,0,19.5,4.5Z" transform="translate(6.223 6.779)" fill="#fff"/>
  </g>
</svg>
