<svg xmlns="http://www.w3.org/2000/svg" width="35" height="35" viewBox="0 0 35 35">
  <g id="Group_3309" data-name="Group 3309" transform="translate(8670 -6664)">
    <circle id="Ellipse_481" data-name="Ellipse 481" cx="17.5" cy="17.5" r="17.5" transform="translate(-8670 6664)" fill="#fff"/>
    <g id="refresh_1_" data-name="refresh (1)" transform="translate(-8639.993 6689.483) rotate(164)">
      <path id="Path_7140" data-name="Path 7140" d="M11.293.066a10.23,10.23,0,0,1-1.056,20.391v2.752a.2.2,0,0,1-.32.139L4.25,19.186a.174.174,0,0,1,0-.282l5.666-4.161a.2.2,0,0,1,.32.139v2.747A7.409,7.409,0,1,0,2.8,9.038,1.409,1.409,0,0,1,.017,8.613,10.244,10.244,0,0,1,11.293.066Z" transform="translate(0 0)" fill="#269c2f"/>
    </g>
  </g>
</svg>
