<svg id="Group_6406" data-name="Group 6406" xmlns="http://www.w3.org/2000/svg" width="35.754" height="35.754" viewBox="0 0 35.754 35.754">
  <path id="Path_5931" data-name="Path 5931" d="M14.845,0A14.952,14.952,0,0,1,29.689,15.057,14.952,14.952,0,0,1,14.845,30.113,14.952,14.952,0,0,1,0,15.057,14.952,14.952,0,0,1,14.845,0Z" transform="translate(3.088 2.82)" fill="#fff"/>
  <g id="youtube" transform="translate(0)">
    <path id="Path_23500" data-name="Path 23500" d="M224.113,215.51l6.486-3.736-6.486-3.736Zm0,0" transform="translate(-208.814 -193.898)" fill="#279c30"/>
    <path id="Path_23501" data-name="Path 23501" d="M17.877,0A17.877,17.877,0,1,0,35.754,17.877,17.879,17.879,0,0,0,17.877,0Zm11.17,17.9a29.505,29.505,0,0,1-.46,5.374,2.8,2.8,0,0,1-1.969,1.969c-1.748.46-8.741.46-8.741.46s-6.975,0-8.741-.478A2.8,2.8,0,0,1,7.166,23.25a29.376,29.376,0,0,1-.46-5.374,29.486,29.486,0,0,1,.46-5.374,2.856,2.856,0,0,1,1.969-1.987c1.748-.46,8.741-.46,8.741-.46s6.993,0,8.741.478A2.8,2.8,0,0,1,28.587,12.5,28,28,0,0,1,29.047,17.9Zm0,0" fill="#279c30"/>
  </g>
</svg>
