<svg xmlns="http://www.w3.org/2000/svg" width="67.084" height="47.001" viewBox="0 0 67.084 47.001">
  <g id="Layer_2" data-name="Layer 2" transform="translate(-0.003 -0.006)">
    <g id="Layer_1" data-name="Layer 1" transform="translate(0.003 0.006)">
      <path id="Path_4803" data-name="Path 4803" d="M90.645,41.274,82.58,43.99l2.994-7.05Z" transform="translate(-25.22 -11.284)" fill="#279c30"/>
      <path id="Path_4804" data-name="Path 4804" d="M63.646,21.686c2.2-5.911,4.084-10.982,5.96-16.067,1.4-3.827,3.584-5.05,7.3-3.181.486.25,3.779.695,3.557,1.257C76.753,13,73.655,20.658,69.772,29.89a9.2,9.2,0,0,1-2.737,3.049,5.342,5.342,0,0,1-1.917.326c-6.37.132-6.37.132-8.822-5.814Q51.656,16.24,47.065,5.036C45.724,1.792,46,1.4,49.649,1.341c1.035,0,2.084.063,3.091,0,2.271-.174,3.563.695,4.293,2.959,1.438,4.439,3.14,8.773,4.765,13.142C62.222,18.581,62.77,19.679,63.646,21.686Z" transform="translate(-14.148 -0.407)" fill="#279c30"/>
      <path id="Path_4805" data-name="Path 4805" d="M78.83,7.474q.577-1.625,1.1-3.258c.695-2.264,2.021-3.14,4.293-2.966,1.021.083,2.084,0,3.091,0,3.654.063,3.925.438,2.584,3.7-.34.841-.695,1.674-1.035,2.515Z" transform="translate(-24.074 -0.379)" fill="#279c30"/>
      <path id="Path_4806" data-name="Path 4806" d="M73.35,45.073v-5.2h5.418C77.032,44.066,76.511,44.955,73.35,45.073Z" transform="translate(-22.401 -12.179)" fill="#279c30"/>
      <text id="Games" transform="translate(34.084 44.001)" fill="#279c30" font-size="10" font-family="AvenirNextRoundedStd-Med, Avenir Next Rounded Std"><tspan x="0" y="0">Games</tspan></text>
      <path id="Path_4807" data-name="Path 4807" d="M21.132,10.046c-2.91-6.064-10.829-4.994-10.829,0,0,0,.66,2.917,9.968,3.7,8.294.695,11.809,8.245,9.412,13.629-3.091,7.016-16.435,8.808-22.971,4.772C2.217,29.371.612,26.592.056,25.113a.785.785,0,0,1,.736-1.07H8.725a1.084,1.084,0,0,1,1.056.778c1.021,3.918,9.794,3.661,9.794-.778,0,0,.222-3.39-7.467-4.286S-1.722,12.88,2.168,6.3c3.466-5.856,13-8.426,21.492-4.216a11.871,11.871,0,0,1,5.988,6.682c.139.41.1,0,.215.486l-8.732.792" transform="translate(-0.003 -0.006)" fill="#279c30"/>
      <path id="Path_4808" data-name="Path 4808" d="M27.776,10.673a3.022,3.022,0,0,1,1.056,1.674c.118.465.278.771.757.771h7.94a.785.785,0,0,0,.736-1.063A9.53,9.53,0,0,0,37.23,10.11H27.7Z" transform="translate(-8.461 -3.091)" fill="#279c30"/>
    </g>
  </g>
</svg>
