<svg xmlns="http://www.w3.org/2000/svg" width="44.52" height="58.232" viewBox="0 0 44.52 58.232">
  <g id="Layer_2" data-name="Layer 2" transform="translate(-58.247 -0.05)">
    <g id="Layer_1" data-name="Layer 1" transform="translate(58.247 0.05)">
      <path id="Path_1455" data-name="Path 1455" d="M86.706,32.163l-3.125,3.125a1.707,1.707,0,0,1-2.41,0l-11.9-11.9a1.707,1.707,0,0,1,0-2.41L81.212,9.036a1.707,1.707,0,0,1,2.41,0L97.33,22.74a2.661,2.661,0,0,0,1.882.769h2.248a2.656,2.656,0,0,0,1.882-.769h0a1.7,1.7,0,0,0,0-2.407L83.54.55a1.7,1.7,0,0,0-2.407,0L60.71,20.957a1.7,1.7,0,0,0,0,2.41L81.268,43.925a1.707,1.707,0,0,0,2.41,0l7.407-7.407a1.707,1.707,0,0,0,0-2.418l-1.971-1.946a1.7,1.7,0,0,0-2.407.008Z" transform="translate(-60.21 -0.05)" fill="#1c843b"/>
      <path id="Path_1456" data-name="Path 1456" d="M80.839,66.312l3.123-3.125a1.707,1.707,0,0,1,2.41,0l11.9,11.9a1.707,1.707,0,0,1,0,2.41L86.33,89.437a1.7,1.7,0,0,1-2.407,0l-13.7-13.7a2.661,2.661,0,0,0-1.882-.769H66.1a2.661,2.661,0,0,0-1.882.769h0a1.7,1.7,0,0,0,0,2.407L84.009,97.938a1.7,1.7,0,0,0,2.41,0l20.419-20.423a1.7,1.7,0,0,0,0-2.407L86.274,54.55a1.7,1.7,0,0,0-2.407,0L76.46,61.956a1.7,1.7,0,0,0,0,2.415l1.971,1.949a1.707,1.707,0,0,0,2.407-.008Z" transform="translate(-62.818 -40.206)" fill="#fdc800"/>
    </g>
  </g>
</svg>
