<svg xmlns="http://www.w3.org/2000/svg" width="38" height="38" viewBox="0 0 38 38">
  <g id="Group_6376" data-name="Group 6376" transform="translate(-0.045 0.029)">
    <circle id="Ellipse_100" data-name="Ellipse 100" cx="19" cy="19" r="19" transform="translate(0.045 -0.03)" fill="#279c30"/>
    <path id="Icon_ionic-logo-twitter" data-name="Icon ionic-logo-twitter" d="M19.41,6.235a7.465,7.465,0,0,1-2.12.583,3.705,3.705,0,0,0,1.625-2.044,7.337,7.337,0,0,1-2.345.9A3.691,3.691,0,0,0,10.181,8.2a3.615,3.615,0,0,0,.1.843A10.464,10.464,0,0,1,2.664,5.175,3.7,3.7,0,0,0,3.812,10.11a3.606,3.606,0,0,1-1.678-.461v.046A3.7,3.7,0,0,0,5.1,13.317a3.717,3.717,0,0,1-.972.13,3.483,3.483,0,0,1-.694-.069,3.7,3.7,0,0,0,3.451,2.567,7.4,7.4,0,0,1-4.588,1.583,7.484,7.484,0,0,1-.881-.053,10.321,10.321,0,0,0,5.652,1.67A10.443,10.443,0,0,0,17.58,8.626c0-.16,0-.32-.011-.477A7.516,7.516,0,0,0,19.41,6.235Z" transform="translate(8.887 7.33)" fill="#fff"/>
  </g>
</svg>
